# xmcd
#
# Track frame offsets:
#	150
#	18167
#	36031
#
# Disc length: 624 seconds
#
# Revision: 0
# Processed by: cddbd v1.5.2PL0 Copyright (c) Steve Scherf et al.
# Submitted via: audiograbber 1.83.01
#
DISCID=16026e03
DTITLE=Katie Melua - Spider's Web (Single)
DYEAR=2006
DGENRE=Easy Listening
TTITLE0=Spider's Web (Single Version)
TTITLE1=Spider's Web (Album Remix)
TTITLE2=Cry Baby Cry
EXTD=
EXTT0=
EXTT1=
EXTT2=
PLAYORDER=
